<mxfile host="app.diagrams.net" modified="2021-06-15T14:20:36.352Z" agent="5.0 (Windows NT 10.0; WOW64) AppleWebKit/537.36 (KHTML, like Gecko) Chrome/91.0.4472.106 Safari/537.36" etag="IvLztdRhocw95zwoHoO8" version="14.7.7" type="github">
  <diagram id="prtHgNgQTEPvFCAcTncT" name="Page-1">
    <mxGraphModel dx="-579" dy="941" grid="0" gridSize="10" guides="1" tooltips="1" connect="1" arrows="1" fold="1" page="0" pageScale="1" pageWidth="827" pageHeight="1169" background="#ffffff" math="0" shadow="0">
      <root>
        <mxCell id="0" />
        <mxCell id="1" parent="0" />
        <mxCell id="G1Xill-yS94K5dL7RhQr-33" value="&lt;br&gt;" style="rounded=0;whiteSpace=wrap;html=1;" parent="1" vertex="1">
          <mxGeometry x="1802" y="64" width="538" height="637" as="geometry" />
        </mxCell>
        <mxCell id="G1Xill-yS94K5dL7RhQr-30" style="edgeStyle=orthogonalEdgeStyle;rounded=0;orthogonalLoop=1;jettySize=auto;html=1;entryX=0.5;entryY=0;entryDx=0;entryDy=0;" parent="1" source="G1Xill-yS94K5dL7RhQr-25" target="G1Xill-yS94K5dL7RhQr-26" edge="1">
          <mxGeometry relative="1" as="geometry" />
        </mxCell>
        <mxCell id="G1Xill-yS94K5dL7RhQr-31" style="edgeStyle=orthogonalEdgeStyle;rounded=0;orthogonalLoop=1;jettySize=auto;html=1;entryX=0.5;entryY=0;entryDx=0;entryDy=0;" parent="1" source="G1Xill-yS94K5dL7RhQr-25" target="G1Xill-yS94K5dL7RhQr-27" edge="1">
          <mxGeometry relative="1" as="geometry">
            <Array as="points">
              <mxPoint x="2507" y="-116" />
            </Array>
          </mxGeometry>
        </mxCell>
        <mxCell id="G1Xill-yS94K5dL7RhQr-25" value="PO/PM Preenche o PSA Applicability Questionnaire&amp;nbsp;" style="rounded=1;whiteSpace=wrap;html=1;fillColor=#d5e8d4;strokeColor=#82b366;" parent="1" vertex="1">
          <mxGeometry x="2242" y="-146" width="120" height="60" as="geometry" />
        </mxCell>
        <mxCell id="G1Xill-yS94K5dL7RhQr-43" style="edgeStyle=orthogonalEdgeStyle;rounded=0;orthogonalLoop=1;jettySize=auto;html=1;entryX=0.5;entryY=0;entryDx=0;entryDy=0;dashed=1;" parent="1" source="G1Xill-yS94K5dL7RhQr-26" target="G1Xill-yS94K5dL7RhQr-39" edge="1">
          <mxGeometry relative="1" as="geometry" />
        </mxCell>
        <mxCell id="G1Xill-yS94K5dL7RhQr-44" value="Input Manual" style="edgeLabel;html=1;align=center;verticalAlign=middle;resizable=0;points=[];" parent="G1Xill-yS94K5dL7RhQr-43" vertex="1" connectable="0">
          <mxGeometry x="-0.2349" y="4" relative="1" as="geometry">
            <mxPoint x="-43" y="20" as="offset" />
          </mxGeometry>
        </mxCell>
        <mxCell id="G1Xill-yS94K5dL7RhQr-26" value="PSA Not Needed" style="rounded=1;whiteSpace=wrap;html=1;fillColor=#d5e8d4;strokeColor=#82b366;" parent="1" vertex="1">
          <mxGeometry x="2083.5" y="-35" width="120" height="60" as="geometry" />
        </mxCell>
        <mxCell id="G1Xill-yS94K5dL7RhQr-36" style="edgeStyle=orthogonalEdgeStyle;rounded=0;orthogonalLoop=1;jettySize=auto;html=1;" parent="1" source="G1Xill-yS94K5dL7RhQr-27" target="G1Xill-yS94K5dL7RhQr-35" edge="1">
          <mxGeometry relative="1" as="geometry" />
        </mxCell>
        <mxCell id="G1Xill-yS94K5dL7RhQr-27" value="PSA Needed" style="rounded=1;whiteSpace=wrap;html=1;fillColor=#f8cecc;strokeColor=#b85450;" parent="1" vertex="1">
          <mxGeometry x="2447" y="-35" width="120" height="60" as="geometry" />
        </mxCell>
        <mxCell id="G1Xill-yS94K5dL7RhQr-34" value="&lt;font style=&quot;font-size: 15px&quot;&gt;Motor de GSO&lt;/font&gt;" style="text;html=1;strokeColor=none;fillColor=none;align=center;verticalAlign=middle;whiteSpace=wrap;rounded=0;" parent="1" vertex="1">
          <mxGeometry x="1802" y="71" width="125" height="20" as="geometry" />
        </mxCell>
        <mxCell id="G1Xill-yS94K5dL7RhQr-38" style="edgeStyle=orthogonalEdgeStyle;rounded=0;orthogonalLoop=1;jettySize=auto;html=1;entryX=0.5;entryY=0;entryDx=0;entryDy=0;" parent="1" source="G1Xill-yS94K5dL7RhQr-35" target="G1Xill-yS94K5dL7RhQr-37" edge="1">
          <mxGeometry relative="1" as="geometry" />
        </mxCell>
        <mxCell id="G1Xill-yS94K5dL7RhQr-35" value="Abertura de PSA no Archer" style="rounded=1;whiteSpace=wrap;html=1;fillColor=#d5e8d4;strokeColor=#82b366;" parent="1" vertex="1">
          <mxGeometry x="2447" y="71" width="120" height="60" as="geometry" />
        </mxCell>
        <mxCell id="G1Xill-yS94K5dL7RhQr-40" style="edgeStyle=orthogonalEdgeStyle;rounded=0;orthogonalLoop=1;jettySize=auto;html=1;entryX=1;entryY=0.5;entryDx=0;entryDy=0;dashed=1;" parent="1" source="G1Xill-yS94K5dL7RhQr-37" target="G1Xill-yS94K5dL7RhQr-39" edge="1">
          <mxGeometry relative="1" as="geometry" />
        </mxCell>
        <mxCell id="G1Xill-yS94K5dL7RhQr-41" value="Input Automático" style="edgeLabel;html=1;align=center;verticalAlign=middle;resizable=0;points=[];" parent="G1Xill-yS94K5dL7RhQr-40" vertex="1" connectable="0">
          <mxGeometry x="-0.2474" relative="1" as="geometry">
            <mxPoint x="-23" y="-10" as="offset" />
          </mxGeometry>
        </mxCell>
        <mxCell id="G1Xill-yS94K5dL7RhQr-37" value="Archer" style="rounded=1;whiteSpace=wrap;html=1;fillColor=#e1d5e7;strokeColor=#9673a6;" parent="1" vertex="1">
          <mxGeometry x="2447" y="177" width="120" height="60" as="geometry" />
        </mxCell>
        <mxCell id="51HbqPfLCFMCIUEoYZ8Y-1" style="edgeStyle=orthogonalEdgeStyle;rounded=0;orthogonalLoop=1;jettySize=auto;html=1;entryX=0.5;entryY=0;entryDx=0;entryDy=0;exitX=0.75;exitY=1;exitDx=0;exitDy=0;" edge="1" parent="1" source="G1Xill-yS94K5dL7RhQr-39" target="G1Xill-yS94K5dL7RhQr-55">
          <mxGeometry relative="1" as="geometry" />
        </mxCell>
        <mxCell id="G1Xill-yS94K5dL7RhQr-39" value="&lt;font style=&quot;font-size: 14px&quot;&gt;Base de dados de GSO&amp;nbsp;&lt;/font&gt;" style="rounded=1;whiteSpace=wrap;html=1;fillColor=#dae8fc;strokeColor=#6c8ebf;" parent="1" vertex="1">
          <mxGeometry x="2029" y="160" width="229" height="93" as="geometry" />
        </mxCell>
        <mxCell id="G1Xill-yS94K5dL7RhQr-49" style="edgeStyle=orthogonalEdgeStyle;rounded=0;orthogonalLoop=1;jettySize=auto;html=1;entryX=0.25;entryY=1;entryDx=0;entryDy=0;dashed=1;" parent="1" source="G1Xill-yS94K5dL7RhQr-45" target="G1Xill-yS94K5dL7RhQr-39" edge="1">
          <mxGeometry relative="1" as="geometry" />
        </mxCell>
        <mxCell id="G1Xill-yS94K5dL7RhQr-51" value="Usuário faz a Seleção do Registro (drop-down list)&lt;br&gt;&amp;nbsp;baseado na GEARR ID&lt;br&gt;Só é possível selecionar entradas &lt;br&gt;com datas de Go-Live&amp;gt;dataHoje" style="edgeLabel;html=1;align=center;verticalAlign=middle;resizable=0;points=[];" parent="G1Xill-yS94K5dL7RhQr-49" vertex="1" connectable="0">
          <mxGeometry x="-0.0423" y="-2" relative="1" as="geometry">
            <mxPoint x="-16" y="33" as="offset" />
          </mxGeometry>
        </mxCell>
        <mxCell id="G1Xill-yS94K5dL7RhQr-45" value="Requisição do Pipeline" style="rounded=1;whiteSpace=wrap;html=1;fillColor=#d5e8d4;strokeColor=#82b366;" parent="1" vertex="1">
          <mxGeometry x="1641" y="303" width="123" height="60" as="geometry" />
        </mxCell>
        <mxCell id="G1Xill-yS94K5dL7RhQr-62" style="edgeStyle=orthogonalEdgeStyle;rounded=0;orthogonalLoop=1;jettySize=auto;html=1;entryX=0.5;entryY=0;entryDx=0;entryDy=0;" parent="1" source="G1Xill-yS94K5dL7RhQr-55" target="G1Xill-yS94K5dL7RhQr-67" edge="1">
          <mxGeometry relative="1" as="geometry">
            <mxPoint x="1981.5000000000005" y="544" as="targetPoint" />
          </mxGeometry>
        </mxCell>
        <mxCell id="G1Xill-yS94K5dL7RhQr-64" value="True" style="edgeLabel;html=1;align=center;verticalAlign=middle;resizable=0;points=[];" parent="G1Xill-yS94K5dL7RhQr-62" vertex="1" connectable="0">
          <mxGeometry x="-0.2271" y="2" relative="1" as="geometry">
            <mxPoint x="9" y="-11" as="offset" />
          </mxGeometry>
        </mxCell>
        <mxCell id="G1Xill-yS94K5dL7RhQr-65" style="edgeStyle=orthogonalEdgeStyle;rounded=0;orthogonalLoop=1;jettySize=auto;html=1;entryX=0;entryY=0.5;entryDx=0;entryDy=0;dashed=1;" parent="1" source="G1Xill-yS94K5dL7RhQr-55" target="G1Xill-yS94K5dL7RhQr-61" edge="1">
          <mxGeometry relative="1" as="geometry" />
        </mxCell>
        <mxCell id="G1Xill-yS94K5dL7RhQr-66" value="False" style="edgeLabel;html=1;align=center;verticalAlign=middle;resizable=0;points=[];" parent="G1Xill-yS94K5dL7RhQr-65" vertex="1" connectable="0">
          <mxGeometry x="0.3818" y="2" relative="1" as="geometry">
            <mxPoint x="-90" y="-8" as="offset" />
          </mxGeometry>
        </mxCell>
        <mxCell id="G1Xill-yS94K5dL7RhQr-55" value="PSA Needed?" style="rhombus;whiteSpace=wrap;html=1;fillColor=#fff2cc;strokeColor=#d6b656;" parent="1" vertex="1">
          <mxGeometry x="2160.5" y="410" width="80" height="80" as="geometry" />
        </mxCell>
        <mxCell id="G1Xill-yS94K5dL7RhQr-61" value="Liberado para Execução" style="rounded=1;whiteSpace=wrap;html=1;fillColor=#d5e8d4;strokeColor=#82b366;" parent="1" vertex="1">
          <mxGeometry x="2440" y="420" width="123" height="60" as="geometry" />
        </mxCell>
        <mxCell id="G1Xill-yS94K5dL7RhQr-69" style="edgeStyle=orthogonalEdgeStyle;rounded=0;orthogonalLoop=1;jettySize=auto;html=1;entryX=0.5;entryY=0;entryDx=0;entryDy=0;dashed=1;" parent="1" source="G1Xill-yS94K5dL7RhQr-67" target="G1Xill-yS94K5dL7RhQr-68" edge="1">
          <mxGeometry relative="1" as="geometry" />
        </mxCell>
        <mxCell id="G1Xill-yS94K5dL7RhQr-72" style="edgeStyle=orthogonalEdgeStyle;rounded=0;orthogonalLoop=1;jettySize=auto;html=1;entryX=0.5;entryY=0;entryDx=0;entryDy=0;dashed=1;" parent="1" source="G1Xill-yS94K5dL7RhQr-67" target="G1Xill-yS94K5dL7RhQr-70" edge="1">
          <mxGeometry relative="1" as="geometry" />
        </mxCell>
        <mxCell id="G1Xill-yS94K5dL7RhQr-67" value="&lt;font face=&quot;calibri, sans-serif&quot;&gt;&lt;span style=&quot;font-size: 14.6667px&quot;&gt;Project Status&lt;/span&gt;&lt;/font&gt;" style="rhombus;whiteSpace=wrap;html=1;fillColor=#fff2cc;strokeColor=#d6b656;" parent="1" vertex="1">
          <mxGeometry x="2018" y="555" width="80" height="80" as="geometry" />
        </mxCell>
        <mxCell id="G1Xill-yS94K5dL7RhQr-68" value="Liberado para Execução" style="rounded=1;whiteSpace=wrap;html=1;fillColor=#d5e8d4;strokeColor=#82b366;" parent="1" vertex="1">
          <mxGeometry x="1832" y="751" width="120" height="60" as="geometry" />
        </mxCell>
        <mxCell id="G1Xill-yS94K5dL7RhQr-70" value="Bloqueado para Execução" style="rounded=1;whiteSpace=wrap;html=1;fillColor=#f8cecc;strokeColor=#b85450;" parent="1" vertex="1">
          <mxGeometry x="2140.5" y="751" width="120" height="60" as="geometry" />
        </mxCell>
        <mxCell id="G1Xill-yS94K5dL7RhQr-73" value="&lt;span style=&quot;color: rgb(0, 0, 0); font-family: helvetica; font-size: 11px; font-style: normal; font-weight: 400; letter-spacing: normal; text-align: center; text-indent: 0px; text-transform: none; word-spacing: 0px; background-color: rgb(255, 255, 255); display: inline; float: none;&quot;&gt;not (Go Live Approved&lt;/span&gt;&lt;br style=&quot;color: rgb(0, 0, 0); font-family: helvetica; font-size: 11px; font-style: normal; font-weight: 400; letter-spacing: normal; text-align: center; text-indent: 0px; text-transform: none; word-spacing: 0px;&quot;&gt;&lt;span style=&quot;color: rgb(0, 0, 0); font-family: helvetica; font-size: 11px; font-style: normal; font-weight: 400; letter-spacing: normal; text-align: center; text-indent: 0px; text-transform: none; word-spacing: 0px; background-color: rgb(255, 255, 255); display: inline; float: none;&quot;&gt;or Assessment not Needed)&lt;/span&gt;" style="text;whiteSpace=wrap;html=1;" parent="1" vertex="1">
          <mxGeometry x="2111" y="555" width="145" height="42" as="geometry" />
        </mxCell>
        <mxCell id="G1Xill-yS94K5dL7RhQr-74" value="&lt;span style=&quot;color: rgb(0 , 0 , 0) ; font-style: normal ; font-weight: 400 ; letter-spacing: normal ; text-indent: 0px ; text-transform: none ; word-spacing: 0px ; font-family: &amp;#34;helvetica&amp;#34; ; font-size: 11px ; text-align: center ; background-color: rgb(255 , 255 , 255) ; display: inline ; float: none&quot;&gt;Go Live Approved&lt;/span&gt;&lt;br style=&quot;color: rgb(0 , 0 , 0) ; font-style: normal ; font-weight: 400 ; letter-spacing: normal ; text-indent: 0px ; text-transform: none ; word-spacing: 0px ; background-color: rgb(255 , 255 , 255) ; font-family: &amp;#34;helvetica&amp;#34; ; font-size: 11px ; text-align: center&quot;&gt;&lt;span style=&quot;color: rgb(0 , 0 , 0) ; font-style: normal ; font-weight: 400 ; letter-spacing: normal ; text-indent: 0px ; text-transform: none ; word-spacing: 0px ; font-family: &amp;#34;helvetica&amp;#34; ; font-size: 11px ; text-align: center ; background-color: rgb(255 , 255 , 255) ; display: inline ; float: none&quot;&gt;or Assessment not Needed&lt;/span&gt;" style="text;whiteSpace=wrap;html=1;" parent="1" vertex="1">
          <mxGeometry x="1881.0035294117647" y="554.9958823529412" width="152" height="42" as="geometry" />
        </mxCell>
      </root>
    </mxGraphModel>
  </diagram>
</mxfile>
